<svg width="182" height="56" xmlns="http://www.w3.org/2000/svg"><g fill="none" fill-rule="evenodd"><rect stroke="#CDCDCD" fill="#252525" width="182" height="56" rx="2"/><g fill-rule="nonzero"><path d="M27 28.8V18.3l7.2 3.2-7.2 7.3zM13.2 42.6L22 26l3.9 3.9-12.7 12.7zM8.1 11.2l18.2 6.6v11.6L8.1 11.2z" fill="#82BEA0"/><path fill="#FA6441" d="M37.9 17.9H27.4l13.5 6-3-6z"/></g><path fill="#FFF" d="M56 39.7c2.4 0 3.6-.8 3.6-2.5 0-.5-.1-.9-.3-1.3-.2-.4-.5-.7-.9-.9-.4-.3-.8-.5-1.3-.7l-1.5-.6c-.6-.2-1.2-.4-1.7-.7-.5-.3-1-.6-1.4-.9-.4-.4-.7-.8-.9-1.3-.2-.5-.3-1.1-.3-1.8 0-1.5.5-2.6 1.5-3.4s2.4-1.2 4.1-1.2c1 0 1.9.1 2.7.3.8.2 1.4.5 1.8.7l-.7 1.9c-.3-.2-.8-.4-1.5-.6-.7-.2-1.4-.3-2.3-.3-.4 0-.9 0-1.2.1-.4.1-.7.2-1 .4-.3.2-.5.4-.7.7s-.3.6-.3 1 .1.8.3 1.1.4.6.7.8c.3.2.7.4 1.1.6.4.2.9.4 1.4.6.7.3 1.4.6 2 .9s1.1.6 1.6 1c.4.4.8.9 1 1.4.2.6.4 1.2.4 2 0 1.5-.5 2.6-1.6 3.4-1.1.8-2.6 1.2-4.5 1.2-.7 0-1.3 0-1.8-.1-.6-.1-1-.2-1.5-.3s-.8-.2-1.1-.4-.6-.3-.7-.3l.7-1.9c.4.2.9.4 1.7.7.6.2 1.5.4 2.6.4zM64.8 29.2c.5-.1 1.2-.3 2-.4.8-.1 1.8-.2 2.9-.2 1 0 1.8.1 2.5.4.7.3 1.2.7 1.6 1.2.4.5.7 1.1.8 1.8s.2 1.5.2 2.3v7h-2.2v-6.5c0-.8-.1-1.4-.2-2s-.3-1-.5-1.3c-.2-.3-.6-.6-1-.7-.4-.2-.9-.2-1.5-.2h-.7c-.3 0-.5 0-.7.1-.2 0-.4.1-.6.1-.2 0-.3.1-.4.1v10.5h-2.2V29.2zM82.6 28.5c.9 0 1.7.1 2.3.3.6.2 1.1.6 1.5 1 .4.4.6.9.8 1.5.2.6.2 1.2.2 1.9V41c-.2 0-.5.1-.8.1-.3.1-.7.1-1.2.2s-.9.1-1.4.1-1 .1-1.5.1c-.7 0-1.4-.1-1.9-.2-.6-.1-1.1-.3-1.6-.6-.4-.3-.8-.7-1-1.2-.2-.5-.4-1.1-.4-1.8s.1-1.3.4-1.8.7-.9 1.1-1.2c.5-.3 1-.5 1.7-.7.6-.1 1.3-.2 2-.2h.7c.2 0 .5.1.7.1.2 0 .4.1.6.1s.3.1.3.1v-.6c0-.4 0-.7-.1-1.1-.1-.4-.2-.7-.4-1-.2-.3-.5-.5-.9-.7-.4-.2-.8-.3-1.4-.3-.7 0-1.4.1-1.9.2-.6.1-1 .2-1.2.3l-.2-1.8c.3-.1.8-.3 1.4-.4.7-.1 1.4-.2 2.2-.2zm.2 11.2h1.4c.4 0 .7-.1 1-.1v-3.7c-.2-.1-.4-.1-.8-.2s-.8-.1-1.3-.1c-.3 0-.7 0-1.1.1-.4 0-.7.1-1 .3-.3.2-.6.4-.8.6-.2.3-.3.6-.3 1 0 .8.3 1.4.8 1.7.5.3 1.2.4 2.1.4zM102.1 35.1c0 .9-.1 1.8-.4 2.6-.2.8-.6 1.5-1.1 2.1s-1.1 1-1.8 1.3c-.7.3-1.5.5-2.4.5-.7 0-1.4-.1-1.9-.3-.6-.2-1-.4-1.2-.6v5h-2.2V29.2c.5-.1 1.2-.3 2-.4.8-.2 1.7-.2 2.7-.2 1 0 1.8.2 2.6.5s1.4.7 2 1.3c.5.6 1 1.2 1.3 2.1.2.7.4 1.6.4 2.6zm-2.4 0c0-1.5-.4-2.6-1.1-3.4-.7-.8-1.7-1.2-2.9-1.2-.7 0-1.2 0-1.6.1-.4 0-.7.1-.9.2v7.9c.3.2.7.4 1.2.6s1.1.3 1.7.3c.6 0 1.2-.1 1.6-.3s.8-.6 1.1-1c.3-.4.5-.9.6-1.4.3-.6.3-1.2.3-1.8zM114.8 39.7c2.4 0 3.6-.8 3.6-2.5 0-.5-.1-.9-.3-1.3-.2-.4-.5-.7-.9-.9-.4-.3-.8-.5-1.3-.7l-1.5-.6c-.6-.2-1.2-.4-1.7-.7-.5-.3-1-.6-1.4-.9-.4-.4-.7-.8-.9-1.3-.2-.5-.3-1.1-.3-1.8 0-1.5.5-2.6 1.5-3.4s2.4-1.2 4.1-1.2c1 0 1.9.1 2.8.3.8.2 1.4.5 1.8.7l-.7 1.9c-.3-.2-.8-.4-1.5-.6-.7-.2-1.4-.3-2.3-.3-.4 0-.9 0-1.2.1-.4.1-.7.2-1 .4-.3.2-.5.4-.7.7s-.3.6-.3 1 .1.8.3 1.1c.2.3.4.6.7.8.3.2.7.4 1.1.6.4.2.9.4 1.4.6.7.3 1.4.6 2 .9s1.1.6 1.6 1c.4.4.8.9 1 1.4.2.6.4 1.2.4 2 0 1.5-.5 2.6-1.6 3.4-1.1.8-2.6 1.2-4.5 1.2-.7 0-1.3 0-1.8-.1-.6-.1-1-.2-1.5-.3-.4-.1-.8-.2-1.1-.4-.3-.1-.6-.3-.7-.3l.7-1.9c.4.2.9.4 1.7.7.5.2 1.4.4 2.5.4zM125.6 28.8h4.7v1.9h-4.7v5.8c0 .6 0 1.1.1 1.5.1.4.2.7.4 1 .2.2.4.4.7.5.3.1.6.1 1 .1.7 0 1.2-.1 1.6-.2.4-.2.7-.3.9-.3l.4 1.8c-.2.1-.6.3-1.2.4-.6.2-1.2.3-1.9.3-.8 0-1.5-.1-2.1-.3-.6-.2-1-.5-1.3-1-.3-.4-.6-1-.7-1.6-.1-.6-.2-1.4-.2-2.2V25.4l2.2-.4v3.8zM143.9 35.1c0 1-.1 1.9-.4 2.7-.3.8-.7 1.5-1.2 2.1-.5.6-1.1 1-1.9 1.3-.7.3-1.5.5-2.4.5-.8 0-1.6-.2-2.4-.5-.7-.3-1.3-.8-1.9-1.3-.5-.6-.9-1.3-1.2-2.1-.3-.8-.4-1.7-.4-2.7 0-1 .1-1.9.4-2.7.3-.8.7-1.5 1.2-2.1.5-.6 1.1-1 1.9-1.3.7-.3 1.5-.5 2.4-.5.8 0 1.6.2 2.4.5.7.3 1.3.8 1.9 1.3.5.6.9 1.3 1.2 2.1.2.8.4 1.7.4 2.7zm-2.4 0c0-1.4-.3-2.5-.9-3.3-.6-.8-1.5-1.2-2.6-1.2s-1.9.4-2.6 1.2c-.6.8-.9 1.9-.9 3.3s.3 2.5.9 3.3 1.5 1.2 2.6 1.2 1.9-.4 2.6-1.2.9-1.9.9-3.3zM151.6 28.6h.7c.2 0 .5.1.7.1s.5.1.7.1c.2 0 .3.1.4.1l-.4 1.9c-.2-.1-.5-.1-.9-.2s-.9-.1-1.6-.1c-.4 0-.8 0-1.2.1-.4.1-.7.1-.8.2v10.5H147v-12c.5-.2 1.2-.4 2-.5.8-.1 1.6-.2 2.6-.2zM155.6 35.1c0-1.1.2-2.1.5-2.9.3-.8.7-1.5 1.3-2.1.5-.5 1.1-1 1.8-1.2.7-.3 1.4-.4 2.1-.4 1.7 0 3 .5 3.9 1.6.9 1 1.3 2.6 1.3 4.8v.8H158c.1 1.3.5 2.3 1.1 3s1.7 1 3.1 1c.8 0 1.4-.1 2-.2.5-.1.9-.3 1.2-.4l.3 1.9c-.3.1-.7.3-1.4.5s-1.5.2-2.3.2c-1.1 0-2-.2-2.8-.5-.8-.3-1.4-.8-2-1.4-.5-.6-.9-1.3-1.1-2.1-.4-.8-.5-1.7-.5-2.6zm8.6-1.2c0-1-.2-1.8-.8-2.5-.5-.6-1.2-1-2.1-1-.5 0-1 .1-1.4.3-.4.2-.7.5-1 .8-.3.3-.5.7-.6 1.1s-.3.8-.3 1.3h6.2zM61.5 12.5v.8H51.2v-.8h10.3zm-2.2.6c-1.1 3.3-3.7 4.8-7.4 5.6-.1-.2-.4-.6-.6-.8 3.7-.7 6.1-2 7-5l1 .2zm1.9-3.9v2.4h-.9V10h-7.9v1.6h-.9V9.2h9.7zm-7.9 5.4c2.7.8 6.2 2.3 8 3.4l-.7.8c-1.7-1.1-5.1-2.6-7.9-3.5l.6-.7zm2.1-4.1l1 .2c-.7 1.6-1.8 3.4-2.6 4.5l-1.1-.1c.9-1.1 2-3 2.7-4.6zm.8-2.7c.3.5.6 1.2.8 1.6l-1 .3c-.2-.4-.5-1.1-.7-1.7l.9-.2zM65.8 10.7l.2.7c-1 .5-2.1 1-2.9 1.4l-.3-.8c.7-.2 1.8-.8 3-1.3zm2.5 4c-1.1 1.2-3.2 2.1-5.1 2.6-.1-.2-.3-.5-.5-.7 1.8-.4 3.9-1.2 4.9-2.2l.7.3zm5.3-.5v.7H62.9v-.7h10.7zm-10-5.7c.5.3 1.2.9 1.5 1.2l-.6.6c-.3-.4-.9-.9-1.5-1.3l.6-.5zm1.1 9.6c.2-.1.6-.3.6-.8v-1.4h.9v2.2s-1.2.5-1.2.8c0-.2-.1-.6-.3-.8zm.3.1l.4-.3 3.7-.8v.7c-3.4.8-3.8.9-4.1 1v-.6zm1.3-10.4v5.6h-.8V7.8h.8zm7.1 1.7v.8h-6.6v-.8h6.6zm-.2 2.7v.8h-6v-.8h6zm-4.8.9c.3.4.6 1 .7 1.3l-.9.3c-.1-.4-.4-.9-.6-1.4l.8-.2zm5.3 4.9c-.2.2-.4.5-.5.7-2.5-.6-4.3-2-5.2-4.1l.8-.2c.8 1.9 2.6 3.1 4.9 3.6zM70.6 7.8v4.8h-.9V7.8h.9zm2.3 7.8c-.7.5-1.7 1-2.5 1.4l-.5-.4c.8-.3 1.8-1 2.4-1.4l.6.4zM79.9 15.1v.8c-1.8.3-3.7.6-5.1.8l-.2-.9c1.4-.1 3.4-.4 5.3-.7zm0-5.9v.9h-5.1v-.9h5.1zM75 13.1c.2-.1.4-.4.6-1 .3-.5 1-2.5 1.4-4.3l1 .2c-.5 1.9-1.3 3.9-2 5.3 0 0-.6.3-.6.5-.1-.1-.3-.5-.4-.7zm.3.1l.5-.2h4v.8h-3.6c-.5 0-.8.1-.9.2v-.8zm3-2.1v7.6h-.8v-7.6h.8zm4.7.5v.6c0 1.9-.2 4.6-2.9 6.6-.1-.2-.5-.5-.7-.6 2.6-1.9 2.7-4.4 2.7-6v-.6h.9zM82.1 8c-.3 2-.8 3.9-1.7 5.1-.2-.1-.5-.4-.7-.5.8-1.1 1.3-2.9 1.5-4.7l.9.1zM85 9.7v.8h-3.8v-.8H85zm.7 8.4c-.2.2-.5.5-.6.7-1.6-1-2.5-3-2.9-5.5l.7-.1c.4 2.1 1.3 4.1 2.8 4.9zm-.8-8.4l.7.2c-.2 1.1-.5 2.4-.8 3.2l-.7-.2c.2-.7.5-2 .7-3v-.2h.1zM90 8.1c-.7 2-1.8 4-2.9 5.4-.1-.2-.4-.7-.5-.9 1.1-1.2 2-3 2.6-4.8l.8.3zm-1.1 2v8.7H88V11l.9-.9zm4.4.7c-.7 2.4-2.1 4.8-3.5 6.1-.1-.2-.4-.5-.6-.7 1.4-1.1 2.8-3.4 3.5-5.6l.6.2zm4.2-.6v.9h-7.8v-.9h7.8zm-1.6 5.6v.8h-4.8v-.8h4.8zm-2-7.9v10.9H93V7.9h.9zm3.8 8.3l-.7.7c-1.4-1.3-2.7-3.6-3.4-6l.7-.2c.7 2.1 2 4.3 3.4 5.5zM100.7 10.7c-.4 1.2-1 2.4-1.7 3.2-.2-.1-.5-.4-.7-.5.7-.7 1.2-1.8 1.5-2.9l.9.2zm3.8-1.7v.8h-5.9V9h5.9zm-4.4 4.1v4h-.7v-4h.7zm2.1 0v3.4h-2.4v-.7h1.7v-1.9h-1.7v-.7h2.4v-.1zm1.3-1.7v.8H100v-.8h3.5zM101 7.8v2.8h-.8V7.8h.8zm3.1 3.6v.4c-.2 4.5-.4 6.1-.7 6.5-.2.3-.4.4-.8.4h-1.3c0-.2-.1-.6-.2-.8h1.2c.2 0 .3 0 .4-.2.3-.4.5-1.9.6-6.3v-.2h.8v.2zm-1-3.6v3h-.8v-3h.8zm5.6 2.9c-.5 4.1-1.7 6.7-4.7 8.2-.1-.2-.4-.6-.5-.8 2.8-1.3 3.9-3.7 4.3-7.5l.9.1zM106.5 8c-.4 2.2-1 4.2-2 5.5-.1-.2-.5-.5-.7-.6.9-1.2 1.5-3 1.8-5l.9.1zm3.2 10c-.2.2-.5.5-.6.8-2.4-1.3-3.6-4-4.3-7.5l.8-.1c.5 3.1 1.8 5.7 4.1 6.8zm-.2-7.9v.8h-4.3v-.8h4.3zM112.8 11.6v.9h-2.3v-.9h2.3zm-1-3.5c.6.5 1.4 1.3 1.8 1.8l-.6.6c-.4-.5-1.2-1.3-1.8-1.8l.6-.6zm-.1 9.7c.2-.1.6-.5.6-1v-5.2h.9v6s-1 .7-1 1c-.1-.2-.3-.6-.5-.8zm.3 0l.2-.4 2.1-1.6c.1.2.2.6.3.8-2 1.6-2.3 1.8-2.5 2.1l-.1-.9zm9.4-6.1v.7h-7.2v-.7h7.2zm-.3-2.9v.7h-6.5v-.7h6.5zm-.4 1.4v.7h-5.9v-.7h5.9zm-.8 2.9v.7h-4v5h-.9v-5.7h4.9zm0 3.2v.7h-4.2v-.7h4.2zm0-1.6v.6h-4.2v-.6h4.2zm-1.7-6.9v4.1h-.9V7.8h.9zm2.3 5.3v4.7c0 .4-.1.7-.4.8-.3.1-.9.1-1.7.1 0-.2-.2-.6-.3-.8h1.3c.1 0 .2-.1.2-.2V13h.9v.1zM124.8 11.8c-.4 1.7-1.2 3.8-2 4.9-.1-.2-.3-.6-.5-.8.8-1 1.6-2.8 1.9-4.3l.6.2zm1.8-.5v.8h-4.1v-.8h4.1zm-.1-2.6c-1 .4-2.4.7-3.7.9 0-.2-.2-.5-.3-.7 1.2-.2 2.6-.6 3.4-.9l.6.7zm-1.4.1v10.1h-.8V8.8h.8zm1.5 5.4l-.5.7c-.2-.5-1-1.8-1.4-2.2l.4-.4c.3.3 1.3 1.6 1.5 1.9zm6-.9h.2l.6.3c-1 3.1-3.7 4.7-6.7 5.4-.1-.2-.3-.6-.5-.7 2.8-.5 5.3-2 6.2-4.7v-.1h.2v-.2zM130.4 8c-.7 1.1-1.8 2.2-3.4 3.1-.1-.2-.4-.5-.6-.6 1.5-.7 2.5-1.7 3.1-2.6l.9.1zm1.6 1h.2l.6.3c-1 2.2-3.3 3.5-5.7 4.2-.1-.2-.3-.5-.5-.7 2.2-.5 4.5-1.7 5.3-3.6l.1-.2zm-.8 3.3c-.8 1.3-2.1 2.6-4 3.6-.1-.2-.4-.5-.6-.6 1.8-.8 3-2 3.6-3.1l1 .1zm-2.5-1.9c.5.3 1.2.8 1.5 1.1l-.7.5c-.3-.3-.9-.8-1.4-1.2l.6-.4zM132 9v.8h-3.6l.7-.8h2.9zm-2.7 6.1c.6.4 1.3.9 1.6 1.3l-.7.5c-.3-.4-1-1-1.6-1.4l.7-.4zm3.4-1.8v.7H129l.7-.8h3v.1zM137.5 7.8c-.2 2.1-.7 3.6-2.7 4.4-.1-.2-.3-.5-.5-.6 1.8-.7 2.2-2 2.4-3.8h.8zm1.7 1v.7h-4.6v-.7h4.6zm3.4 7.7v.7h-7.8v-.7h7.8zm.1-4.1v.8H136v-.8h6.7zm-4.8 1.1c-.1.7-.4 1.6-.5 2.1h-.9c.2-.6.4-1.5.6-2.2l.8.1zm6.3 1.4v.7h-7.3v-.7h7.3zm-4.4-6.1v.3c-.1 1.5-.2 2.1-.5 2.3-.2.2-.4.2-.6.3h-1.2c0-.2-.1-.5-.2-.7h1c.2 0 .3 0 .3-.1.1-.1.3-.7.3-2.1h.9zm4.8-.3v3.1h-4V8.5h4zm-3.2 2.5h2.4V9.2h-2.4V11zm3.4 3.9v.4c-.2 2-.4 2.8-.7 3.1-.2.2-.4.3-.8.3h-1.4c0-.2-.1-.5-.2-.7.5.1 1 .1 1.2.1s.3 0 .4-.1c.2-.2.4-1 .6-2.8v-.1h.9v-.2zm-2.3-2.5h.2l.7.1c-.1.9-.4 2-.6 2.9l-.9-.1c.2-.9.4-2.1.5-2.7v-.1l.1-.1z"/></g></svg>