<svg xmlns="http://www.w3.org/2000/svg" id="レイヤー_1" data-name="レイヤー 1" viewBox="0 0 512.05 512.05"><defs><style>.cls-1,.cls-3{fill:#fff}.cls-1{stroke:#898989;stroke-miterlimit:10;stroke-width:36px}.cls-2{fill:#3e3a39}.cls-4{fill:#44403f}</style></defs><rect width="476.05" height="476.05" x="18" y="18" class="cls-1"/><rect width="441.47" height="441.47" x="35.29" y="35.29" class="cls-2"/><path d="M125.15,296.33l27.52-4c4,25.51,20.06,47.29,56.75,47.29,22.93,0,46.15-9.17,46.15-35,0-24.08-14.9-31.81-39.27-36.69l-31-6c-29.53-6-51.6-21.21-51.6-56.18,0-34.1,27.81-57,71.95-57,41.27,0,72.51,18.05,76.81,57.89l-27.23,5.74c-3.72-27.23-19.49-42.14-50.16-42.14-25.79,0-43.28,12.33-43.28,33,0,19.78,10.61,30.1,33.83,35l31.24,6.31c32.1,6.59,56.75,20.64,56.75,57.61,0,31.82-23.79,59.91-75.1,59.91C155.82,362,128.88,334.16,125.15,296.33Z" class="cls-3" transform="translate(0.02 0.68)"/><path d="M349.58,233.84V313c0,16.63,6.88,23.79,21.79,23.79a50.83,50.83,0,0,0,15.48-2v22.35c-6.31,1.72-12.33,2.58-21.79,2.58-31.81,0-39.84-19.2-39.84-45.86v-80H298V213.78h27.23v-35l24.36-7.16v42.13h37.27v20.06Z" class="cls-3" transform="translate(0.02 0.68)"/><polygon points="476.76 142.31 476.76 35.29 330.05 35.29 476.76 142.31" class="cls-4"/></svg>