<svg xmlns="http://www.w3.org/2000/svg" width="964.93" height="215.17" viewBox="0 0 964.93 215.17"><defs><style>.cls-1{fill:#163469}</style></defs><g><path d="M281.8,171.9c-5.61,3.41-11.62,6.01-18.03,7.81-6.41,1.8-12.92,2.71-19.53,2.71-10.82,0-20.69-1.75-29.6-5.26-6.73-2.64-12.74-6.18-18.04-10.59l-1.38-1.21c-1.23-1.08-2.43-2.2-3.57-3.38-6.41-6.61-11.37-14.58-14.88-23.89-3.51-9.32-5.26-19.68-5.26-31.1,0-10.82,1.8-20.78,5.41-29.9,3.61-9.11,8.57-16.98,14.88-23.59s13.72-11.77,22.24-15.48c8.51-3.71,17.68-5.56,27.5-5.56,6.21,0,12.37,1,18.48,3,6.11,2,12.12,4.96,18.03,8.87,5.91,3.91,11.77,8.77,17.58,14.58l21.64-22.54c-5.01-7.01-11.47-13.27-19.38-18.78-7.92-5.51-16.73-9.81-26.45-12.92-9.72-3.1-19.68-4.66-29.9-4.66-14.42,0-27.85,2.7-40.27,8.11-7.57,3.29-14.57,7.42-21.02,12.35L0,92.56v29.49l174.26,70.2c7.24,6.24,15.33,11.29,24.29,15.1,12.22,5.21,25.64,7.81,40.27,7.81,9.81,0,19.58-1.25,29.3-3.76,9.72-2.5,18.53-5.96,26.45-10.37,7.91-4.4,14.17-9.32,18.78-14.73l-16.23-26.45c-4.61,4.61-9.72,8.62-15.33,12.02ZM57.57,115.17c-5.81-1.97-11.14-3.7-16.01-5.2-.79-.24-1.57-.48-2.34-.72,2.99-1,6.15-2.07,9.51-3.21,3.83-1.31,8.1-2.86,12.78-4.63,4.68-1.78,9.92-3.79,15.73-6.04l67.76-26.63c-4.36,11.89-6.54,24.63-6.54,38.24,0,14.37,2.03,27.66,6.08,39.89l-67.29-24.54c-7.3-2.81-13.86-5.2-19.66-7.16Z" class="cls-1"/><g><path d="M434.54,166.69l-45.49-113.71h19.98l27.13,69.04c1.3,3.36,2.46,6.39,3.49,9.1,1.03,2.71,1.92,5.17,2.68,7.39,.76,2.22,1.46,4.3,2.11,6.25s1.3,3.9,1.95,5.85l-4.22,.16c.76-2.6,1.57-5.3,2.44-8.12,.87-2.82,1.87-5.9,3.01-9.26,1.14-3.36,2.52-7.15,4.14-11.37l25.18-69.04h20.47l-45.81,113.71h-17.06Z"/><path d="M563.36,168.32c-7.91,0-15.16-1.41-21.77-4.22-6.61-2.81-12.35-6.85-17.22-12.1-4.87-5.25-8.64-11.45-11.29-18.6-2.66-7.15-3.98-15-3.98-23.56s1.43-15.68,4.3-22.66c2.87-6.99,6.85-13.13,11.94-18.44,5.09-5.3,10.99-9.42,17.71-12.35,6.71-2.92,13.97-4.39,21.77-4.39,5.52,0,10.91,.84,16.16,2.52,5.25,1.68,10.02,4.01,14.29,6.98,4.28,2.98,7.77,6.36,10.48,10.15l-11.7,12.18c-3.14-3.14-6.31-5.77-9.5-7.88-3.2-2.11-6.44-3.71-9.75-4.79-3.3-1.08-6.63-1.62-9.99-1.62-5.31,0-10.26,1-14.86,3.01-4.6,2.01-8.61,4.79-12.02,8.37-3.41,3.57-6.09,7.83-8.04,12.75-1.95,4.93-2.92,10.32-2.92,16.16,0,6.17,.95,11.78,2.84,16.81,1.89,5.04,4.57,9.34,8.04,12.92,3.46,3.57,7.61,6.31,12.43,8.2,4.82,1.9,10.15,2.84,16,2.84,3.57,0,7.09-.49,10.56-1.46,3.46-.97,6.71-2.38,9.75-4.22,3.03-1.84,5.79-4,8.28-6.5l8.77,14.3c-2.49,2.92-5.88,5.58-10.15,7.96-4.28,2.38-9.04,4.25-14.29,5.6-5.25,1.35-10.53,2.03-15.84,2.03Z"/><path d="M668.14,168.32c-3.68,0-7.34-.6-10.96-1.79-3.63-1.19-6.93-2.79-9.91-4.79-2.98-2-5.47-4.22-7.47-6.66-2-2.44-3.33-4.9-3.98-7.39l4.22-2.27v20.79h-16.73V46.48h16.73v54.42l-2.6-1.46c.54-2.49,1.73-4.9,3.57-7.23,1.84-2.33,4.2-4.44,7.07-6.33,2.87-1.89,5.98-3.41,9.34-4.55,3.36-1.14,6.77-1.71,10.23-1.71,7.69,0,14.51,1.9,20.47,5.69,5.96,3.79,10.67,9.02,14.13,15.68,3.46,6.66,5.2,14.27,5.2,22.82s-1.71,16.19-5.12,22.91c-3.41,6.72-8.1,12-14.05,15.84-5.96,3.85-12.67,5.77-20.14,5.77Zm-2.76-15.27c4.98,0,9.42-1.27,13.32-3.82,3.9-2.54,6.99-6.01,9.26-10.4,2.27-4.39,3.41-9.39,3.41-15.03s-1.11-10.48-3.33-14.86c-2.22-4.39-5.28-7.82-9.18-10.32-3.9-2.49-8.39-3.74-13.48-3.74s-9.58,1.25-13.48,3.74c-3.9,2.49-6.99,5.93-9.26,10.32-2.27,4.39-3.41,9.34-3.41,14.86s1.14,10.64,3.41,15.03c2.27,4.39,5.36,7.85,9.26,10.4,3.9,2.55,8.39,3.82,13.48,3.82Z"/><path d="M763.98,168.32c-8.34,0-15.79-1.92-22.34-5.77-6.55-3.84-11.72-9.1-15.51-15.76-3.79-6.66-5.69-14.27-5.69-22.82s1.89-16.16,5.69-22.82c3.79-6.66,8.96-11.91,15.51-15.76,6.55-3.84,14-5.77,22.34-5.77s15.62,1.92,22.17,5.77c6.55,3.85,11.72,9.1,15.51,15.76,3.79,6.66,5.69,14.27,5.69,22.82s-1.9,16.16-5.69,22.82c-3.79,6.66-8.96,11.92-15.51,15.76-6.55,3.85-13.95,5.77-22.17,5.77Zm0-15.27c5.09,0,9.64-1.27,13.65-3.82,4.01-2.54,7.15-6.01,9.42-10.4,2.27-4.39,3.36-9.34,3.25-14.86,.11-5.63-.98-10.64-3.25-15.03-2.27-4.39-5.42-7.82-9.42-10.32-4.01-2.49-8.56-3.74-13.65-3.74s-9.67,1.27-13.73,3.82c-4.06,2.55-7.23,6.01-9.5,10.4-2.27,4.39-3.36,9.34-3.25,14.86-.11,5.52,.98,10.48,3.25,14.86,2.27,4.39,5.44,7.85,9.5,10.4,4.06,2.55,8.63,3.82,13.73,3.82Z"/><path d="M825.55,166.69V81.41h16.89v26.8l-1.62-6.5c1.19-4.11,3.22-7.85,6.09-11.21,2.87-3.36,6.17-6.01,9.91-7.96,3.74-1.95,7.61-2.92,11.62-2.92,1.84,0,3.6,.16,5.28,.49,1.68,.33,3.01,.71,3.98,1.14l-4.39,18.19c-1.3-.54-2.74-1-4.3-1.38-1.57-.38-3.11-.57-4.63-.57-2.92,0-5.71,.57-8.37,1.71-2.65,1.14-4.98,2.71-6.99,4.71s-3.6,4.33-4.79,6.98c-1.19,2.66-1.79,5.55-1.79,8.69v47.11h-16.89Z"/><path d="M891.02,166.69V81.41h16.73v17.54l-2.92,1.95c1.08-3.79,3.19-7.28,6.33-10.48,3.14-3.19,6.88-5.79,11.21-7.8,4.33-2,8.77-3.01,13.32-3.01,6.5,0,11.91,1.27,16.25,3.82,4.33,2.55,7.58,6.42,9.75,11.62,2.17,5.2,3.25,11.75,3.25,19.66v51.98h-16.73v-50.85c0-4.87-.65-8.91-1.95-12.1-1.3-3.19-3.3-5.52-6.01-6.99-2.71-1.46-6.07-2.08-10.07-1.87-3.25,0-6.23,.52-8.93,1.54-2.71,1.03-5.06,2.46-7.07,4.3-2.01,1.84-3.57,3.98-4.71,6.42-1.14,2.44-1.71,5.06-1.71,7.88v51.66h-16.73Z"/></g></g></svg>