<svg xmlns="http://www.w3.org/2000/svg" width="317.26" height="215.17" fill="#fff" viewBox="0 0 317.26 215.17"><g><path d="M281.8,171.9c-5.61,3.41-11.62,6.01-18.03,7.81-6.41,1.8-12.92,2.71-19.53,2.71-10.82,0-20.69-1.75-29.6-5.26-6.73-2.64-12.74-6.18-18.04-10.59l-1.38-1.21c-1.23-1.08-2.43-2.2-3.57-3.38-6.41-6.61-11.37-14.58-14.88-23.89-3.51-9.32-5.26-19.68-5.26-31.1,0-10.82,1.8-20.78,5.41-29.9,3.61-9.11,8.57-16.98,14.88-23.59s13.72-11.77,22.24-15.48c8.51-3.71,17.68-5.56,27.5-5.56,6.21,0,12.37,1,18.48,3,6.11,2,12.12,4.96,18.03,8.87,5.91,3.91,11.77,8.77,17.58,14.58l21.64-22.54c-5.01-7.01-11.47-13.27-19.38-18.78-7.92-5.51-16.73-9.81-26.45-12.92-9.72-3.1-19.68-4.66-29.9-4.66-14.42,0-27.85,2.7-40.27,8.11-7.57,3.29-14.57,7.42-21.02,12.35L0,92.56v29.49l174.26,70.2c7.24,6.24,15.33,11.29,24.29,15.1,12.22,5.21,25.64,7.81,40.27,7.81,9.81,0,19.58-1.25,29.3-3.76,9.72-2.5,18.53-5.96,26.45-10.37,7.91-4.4,14.17-9.32,18.78-14.73l-16.23-26.45c-4.61,4.61-9.72,8.62-15.33,12.02ZM57.57,115.17c-5.81-1.97-11.14-3.7-16.01-5.2-.79-.24-1.57-.48-2.34-.72,2.99-1,6.15-2.07,9.51-3.21,3.83-1.31,8.1-2.86,12.78-4.63,4.68-1.78,9.92-3.79,15.73-6.04l67.76-26.63c-4.36,11.89-6.54,24.63-6.54,38.24,0,14.37,2.03,27.66,6.08,39.89l-67.29-24.54c-7.3-2.81-13.86-5.2-19.66-7.16Z" class="cls-1"/></g></svg>