<svg xmlns="http://www.w3.org/2000/svg" xmlns:xlink="http://www.w3.org/1999/xlink" width="1407.23" height="338.82" viewBox="0 0 1407.23 338.82"><defs><style>.cls-1{fill:url(#gradient1)}</style><linearGradient id="gradient1" x1="0" x2="391.23" y1="169.41" y2="169.41" gradientUnits="userSpaceOnUse"><stop offset="0" stop-color="#163469"/><stop offset="1" stop-color="#7000aa"/></linearGradient></defs><g id="base"><path d="M363.29,290.88h-35.58v-62.09s-50.93-88.22-50.93-88.22l1.57,150.31h-34.78V83.84L195.62,0h0s0,0,0,0L0,338.82H195.62s195.62,0,195.62,0l-27.95-47.94Zm-170.67,0H80.69S195.62,92.62,195.62,92.62l-3,198.26Z" class="cls-1"/><g fill="#FFF"><path d="M555.65,253.42l-58.32-168.01h30.24l44.64,134.44,44.89-134.44h30l-58.32,168.01h-33.12Z"/><path d="M746.95,256.54c-25.29,0-46.25-8.36-62.89-25.08-16.64-16.72-24.96-37.4-24.96-62.04s8.32-45.32,24.96-62.04c16.64-16.72,37.6-25.08,62.89-25.08,15.2,0,29.24,3.6,42.12,10.8,12.88,7.2,22.92,16.96,30.12,29.28l-24,13.92c-4.48-8.32-11-14.92-19.56-19.8-8.56-4.88-18.12-7.32-28.68-7.32-17.92,0-32.44,5.68-43.56,17.04-11.12,11.36-16.68,25.76-16.68,43.2s5.56,31.84,16.68,43.2c11.12,11.36,25.64,17.04,43.56,17.04,10.56,0,20.16-2.44,28.8-7.32,8.64-4.88,15.12-11.48,19.44-19.8l24,13.68c-7.04,12.32-17,22.12-29.88,29.4-12.88,7.28-27,10.92-42.36,10.92Z"/><path d="M873.19,227.02h68.41v26.4h-96.01V85.41h27.6V227.02Z"/><path d="M987.32,110.49c-3.28,3.28-7.16,4.92-11.64,4.92s-8.36-1.64-11.64-4.92c-3.28-3.28-4.92-7.16-4.92-11.64s1.6-8.36,4.8-11.64c3.2-3.28,7.12-4.92,11.76-4.92s8.56,1.64,11.76,4.92c3.2,3.28,4.8,7.16,4.8,11.64s-1.64,8.36-4.92,11.64Zm-24.6,142.93v-120.01h25.92v120.01h-25.92Z"/><path d="M1084.16,130.29c13.76,0,24.88,4.4,33.36,13.2,8.48,8.8,12.72,20.88,12.72,36.24v73.69h-25.92v-71.05c0-8.96-2.4-15.84-7.2-20.64s-11.36-7.2-19.68-7.2c-9.12,0-16.48,2.84-22.08,8.52-5.6,5.68-8.4,14.36-8.4,26.04v64.33h-25.92v-120.01h25.92v15.36c7.84-12.32,20.24-18.48,37.2-18.48Z"/><path d="M1241.38,133.41h25.92v120.01h-25.92v-15.36c-7.84,12.32-20.24,18.48-37.2,18.48-13.76,0-24.88-4.4-33.36-13.2-8.48-8.8-12.72-20.88-12.72-36.24v-73.69h25.92v71.05c0,8.96,2.4,15.84,7.2,20.64,4.8,4.8,11.36,7.2,19.68,7.2,9.12,0,16.48-2.84,22.08-8.52,5.6-5.68,8.4-14.36,8.4-26.04v-64.33Z"/><path d="M1407.23,253.42h-30l-29.88-40.93-29.89,40.93h-30.24l45-61.65-42.6-58.36h30l27.6,37.81,27.6-37.81h30.24l-42.72,58.52,44.88,61.49Z"/></g></g></svg>